<svg width="623" height="55" viewBox="0 0 623 55" fill="none" xmlns="http://www.w3.org/2000/svg">
<path d="M13.9621 27.4523L12.5832 41.4719C12.0086 47.1027 0.804403 46.7005 1.2066 40.3802L4.07947 10.7322C4.48167 5.56105 12.0086 4.98648 14.6516 8.49137C15.0538 8.83612 25.3961 24.1772 25.3961 24.1772L25.4536 9.35323C25.3387 2.63073 36.9451 2.28598 36.9451 9.41069L36.7152 40.5526C36.6003 45.2066 29.4181 46.7005 26.0282 42.4487L13.9621 27.4523ZM58.1262 4.12462C70.7668 4.0097 76.9722 14.2371 76.9147 24.522C76.7998 34.8068 70.4795 44.9768 58.356 45.1491C46.0027 45.2641 39.9696 35.0941 40.142 24.6943C40.2569 14.352 46.5772 4.23953 58.1262 4.12462ZM58.2411 15.6161C53.2423 15.6735 50.8291 20.385 50.7716 24.8667C50.7142 29.2335 53.0125 33.7151 58.2411 33.6577C63.5846 33.6002 66.2276 28.9462 66.2276 24.4645C66.2851 20.0403 63.6421 15.5586 58.2411 15.6161ZM97.9329 30.9572C97.9329 30.9572 93.3937 30.3252 91.0954 29.5208C88.4524 28.6014 81.8448 25.9009 80.236 21.5916C78.5123 16.7078 79.4891 10.6173 82.879 7.5146C87.016 3.83733 93.4512 2.68818 98.9671 4.18208C104.828 5.73342 109.482 10.1002 109.424 16.8227C109.424 19.4657 97.2434 19.8105 97.2434 16.7078C97.2434 15.6735 96.2091 13.4902 92.9915 14.1222C90.291 14.6393 89.7165 17.0525 90.8082 18.0867C91.8998 19.1784 96.9561 20.4425 99.4842 21.132C102.932 22.1662 106.379 22.9706 108.16 25.3264C109.482 27.0501 110.171 29.176 110.114 31.8765C109.999 38.5416 104.483 43.0232 98.2201 44.5746C92.9341 45.8961 86.9011 44.8619 82.879 41.6442C80.0636 39.346 79.604 36.588 79.3741 31.934C79.1443 28.7738 90.2336 28.3142 91.5551 32.0489C92.4744 34.5195 93.5661 34.5195 95.1749 34.5195C97.0135 34.577 98.1627 33.198 97.9329 30.9572ZM131.319 30.9572C131.319 30.9572 126.78 30.3252 124.481 29.5208C121.838 28.6014 115.231 25.9009 113.622 21.5916C111.898 16.7078 112.875 10.6173 116.265 7.5146C120.402 3.83733 126.837 2.68818 132.353 4.18208C138.214 5.73342 142.868 10.1002 142.81 16.8227C142.81 19.4657 130.629 19.8105 130.629 16.7078C130.629 15.6735 129.595 13.4902 126.377 14.1222C123.677 14.6393 123.102 17.0525 124.194 18.0867C125.286 19.1784 130.342 20.4425 132.87 21.132C136.317 22.1662 139.765 22.9706 141.546 25.3264C142.868 27.0501 143.557 29.176 143.5 31.8765C143.385 38.5416 137.869 43.0232 131.606 44.5746C126.32 45.8961 120.287 44.8619 116.265 41.6442C113.449 39.346 112.99 36.588 112.76 31.934C112.53 28.7738 123.619 28.3142 124.941 32.0489C125.86 34.5195 126.952 34.5195 128.561 34.5195C130.399 34.577 131.549 33.198 131.319 30.9572ZM163.67 4.12462C176.311 4.0097 182.516 14.2371 182.459 24.522C182.344 34.8068 176.024 44.9768 163.9 45.1491C151.547 45.2641 145.514 35.0941 145.686 24.6943C145.801 14.352 152.121 4.23953 163.67 4.12462ZM163.785 15.6161C158.786 15.6735 156.373 20.385 156.316 24.8667C156.258 29.2335 158.557 33.7151 163.785 33.6577C169.129 33.6002 171.772 28.9462 171.772 24.4645C171.829 20.0403 169.186 15.5586 163.785 15.6161ZM203.477 30.9572C203.477 30.9572 198.938 30.3252 196.64 29.5208C193.997 28.6014 187.389 25.9009 185.78 21.5916C184.056 16.7078 185.033 10.6173 188.423 7.5146C192.56 3.83733 198.995 2.68818 204.511 4.18208C210.372 5.73342 215.026 10.1002 214.968 16.8227C214.968 19.4657 202.788 19.8105 202.788 16.7078C202.788 15.6735 201.753 13.4902 198.536 14.1222C195.835 14.6393 195.261 17.0525 196.352 18.0867C197.444 19.1784 202.5 20.4425 205.028 21.132C208.476 22.1662 211.923 22.9706 213.704 25.3264C215.026 27.0501 215.715 29.176 215.658 31.8765C215.543 38.5416 210.027 43.0232 203.764 44.5746C198.478 45.8961 192.445 44.8619 188.423 41.6442C185.608 39.346 185.148 36.588 184.918 31.934C184.688 28.7738 195.778 28.3142 197.099 32.0489C198.019 34.5195 199.11 34.5195 200.719 34.5195C202.558 34.577 203.707 33.198 203.477 30.9572ZM249.618 31.9914L249.56 40.8398C249.445 46.3558 238.298 46.9878 238.126 40.7824L238.298 11.5366C238.298 10.33 238.988 8.83612 239.85 7.97426C242.723 5.27376 250.077 3.26276 255.536 4.64173C261.626 6.13562 266.395 10.5598 266.74 17.5696C267.027 22.5684 263.924 29.1186 256.685 31.3594C254.731 31.934 252.375 32.2212 249.618 31.9914ZM249.732 14.6393L249.675 21.4193C254.099 22.2237 256.053 20.3276 256.11 18.0867C256.225 15.6735 253.984 13.4327 249.732 14.6393ZM275.757 45.1491C273.172 44.632 270.299 42.7359 269.954 40.4951C269.035 34.5195 269.035 15.3288 270.184 9.29578C270.644 6.7102 273.919 4.75665 276.734 4.12462C280.756 3.26276 294.316 4.06716 294.316 4.06716C302.13 4.0097 302.015 15.5012 294.431 15.5586C294.431 15.5586 283.859 15.6161 281.618 15.6161C280.239 15.6161 280.239 19.2359 281.561 19.2359C283.284 19.1784 290.179 19.1784 290.179 19.1784C296.442 19.121 296.385 30.6699 290.352 30.6699C290.352 30.555 283.112 30.6124 281.503 30.6699C280.411 30.7274 280.124 33.6577 281.503 33.6577C283.687 33.6577 291.386 33.6002 293.971 33.6002C301.211 33.7726 301.671 45.0917 294.086 45.0917C294.086 45.0917 279.779 45.8961 275.757 45.1491ZM317.237 31.5892C316.432 31.5892 315.57 31.5892 314.651 31.4743L314.594 40.3227C314.479 45.8386 303.332 46.4707 303.16 40.2653L303.332 11.0195C303.332 9.87035 304.022 8.319 304.883 7.5146C307.756 4.75665 315.111 2.8031 320.569 4.12462C326.66 5.61851 331.429 10.1002 331.773 17.11C331.946 20.2701 330.797 24.0049 328.096 26.9352L335.566 36.6455C339.07 41.357 330.624 48.7115 326.43 43.6553L317.237 31.5892ZM314.766 14.1796L314.709 20.9596C319.133 21.7066 321.086 19.8679 321.144 17.6271C321.259 15.1564 319.018 12.973 314.766 14.1796ZM356.603 30.9572C356.603 30.9572 352.064 30.3252 349.766 29.5208C347.123 28.6014 340.515 25.9009 338.906 21.5916C337.182 16.7078 338.159 10.6173 341.549 7.5146C345.686 3.83733 352.121 2.68818 357.637 4.18208C363.498 5.73342 368.152 10.1002 368.094 16.8227C368.094 19.4657 355.914 19.8105 355.914 16.7078C355.914 15.6735 354.879 13.4902 351.662 14.1222C348.961 14.6393 348.387 17.0525 349.478 18.0867C350.57 19.1784 355.626 20.4425 358.154 21.132C361.602 22.1662 365.049 22.9706 366.83 25.3264C368.152 27.0501 368.841 29.176 368.784 31.8765C368.669 38.5416 363.153 43.0232 356.89 44.5746C351.604 45.8961 345.571 44.8619 341.549 41.6442C338.734 39.346 338.274 36.588 338.044 31.934C337.814 28.7738 348.904 28.3142 350.225 32.0489C351.145 34.5195 352.236 34.5195 353.845 34.5195C355.684 34.577 356.833 33.198 356.603 30.9572ZM388.955 4.12462C401.595 4.0097 407.801 14.2371 407.743 24.522C407.628 34.8068 401.308 44.9768 389.184 45.1491C376.831 45.2641 370.798 35.0941 370.97 24.6943C371.085 14.352 377.406 4.23953 388.955 4.12462ZM389.07 15.6161C384.071 15.6735 381.658 20.385 381.6 24.8667C381.543 29.2335 383.841 33.7151 389.07 33.6577C394.413 33.6002 397.056 28.9462 397.056 24.4645C397.114 20.0403 394.471 15.5586 389.07 15.6161ZM422.728 27.4523L421.349 41.4719C420.775 47.1027 409.571 46.7005 409.973 40.3802L412.846 10.7322C413.248 5.56105 420.775 4.98648 423.418 8.49137C423.82 8.83612 434.162 24.1772 434.162 24.1772L434.22 9.35323C434.105 2.63073 445.711 2.28598 445.711 9.41069L445.481 40.5526C445.367 45.2066 438.184 46.7005 434.794 42.4487L422.728 27.4523ZM460.4 31.0721C460.4 34.0599 460.342 36.5305 460.112 41.0122C459.883 46.7005 449.195 46.643 449.253 40.4951C449.31 25.3838 451.149 18.4315 452.758 12.2836C454.252 6.48037 459.308 3.66496 465.456 3.83733C471.431 3.95225 475.971 4.35445 477.809 12.6283C479.073 18.7188 481.027 25.2115 482.578 40.2078C483.095 45.2066 472.466 47.3325 471.719 41.4144C471.202 36.9902 471.029 33.8875 470.799 30.8997C467.524 30.9572 463.56 31.0146 460.4 31.0721ZM469.478 19.4657C469.076 17.742 468.386 13.4327 465.456 13.4902C462.526 13.5476 461.549 17.8569 461.204 19.5806C463.732 19.5232 466.72 19.4657 469.478 19.4657ZM502.755 45.0917C496.32 45.0342 492.183 43.0232 488.563 38.7714C485.92 35.6687 484.426 31.3019 484.426 25.2689C484.369 20.2127 485.92 14.8117 489.712 10.6748C493.332 6.76766 499.193 3.49259 508.386 3.83733C514.304 4.06716 513.902 15.3863 508.214 15.3288C503.33 15.2713 500.284 16.5354 498.159 18.4889C496.148 20.2701 495.688 22.5684 495.86 25.2689C496.09 28.8887 497.124 31.7041 498.791 32.7384C499.882 33.3704 501.376 33.6577 502.928 33.7726C502.698 31.934 502.468 29.5782 502.123 26.5904C503.157 22.0513 511.546 21.4193 513.5 25.2689C513.959 29.0611 514.476 32.7958 514.706 37.6222C514.879 41.5293 508.961 45.1491 502.755 45.0917ZM524.384 45.1491C521.798 44.632 518.925 42.7359 518.581 40.4951C517.661 34.5195 517.661 15.3288 518.81 9.29578C519.27 6.7102 522.545 4.75665 525.361 4.12462C529.383 3.26276 542.943 4.06716 542.943 4.06716C550.757 4.0097 550.642 15.5012 543.057 15.5586C543.057 15.5586 532.485 15.6161 530.244 15.6161C528.865 15.6161 528.865 19.2359 530.187 19.2359C531.911 19.1784 538.806 19.1784 538.806 19.1784C545.068 19.121 545.011 30.6699 538.978 30.6699C538.978 30.555 531.738 30.6124 530.13 30.6699C529.038 30.7274 528.751 33.6577 530.13 33.6577C532.313 33.6577 540.012 33.6002 542.598 33.6002C549.837 33.7726 550.297 45.0917 542.713 45.0917C542.713 45.0917 528.406 45.8961 524.384 45.1491ZM563.622 27.4523L562.243 41.4719C561.669 47.1027 550.464 46.7005 550.867 40.3802L553.74 10.7322C554.142 5.56105 561.669 4.98648 564.312 8.49137C564.714 8.83612 575.056 24.1772 575.056 24.1772L575.114 9.35323C574.999 2.63073 586.605 2.28598 586.605 9.41069L586.375 40.5526C586.26 45.2066 579.078 46.7005 575.688 42.4487L563.622 27.4523ZM608.82 30.9572C608.82 30.9572 604.281 30.3252 601.983 29.5208C599.34 28.6014 592.732 25.9009 591.124 21.5916C589.4 16.7078 590.377 10.6173 593.767 7.5146C597.904 3.83733 604.339 2.68818 609.855 4.18208C615.715 5.73342 620.369 10.1002 620.312 16.8227C620.312 19.4657 608.131 19.8105 608.131 16.7078C608.131 15.6735 607.097 13.4902 603.879 14.1222C601.179 14.6393 600.604 17.0525 601.696 18.0867C602.787 19.1784 607.844 20.4425 610.372 21.132C613.819 22.1662 617.267 22.9706 619.048 25.3264C620.369 27.0501 621.059 29.176 621.001 31.8765C620.887 38.5416 615.371 43.0232 609.108 44.5746C603.822 45.8961 597.789 44.8619 593.767 41.6442C590.951 39.346 590.492 36.588 590.262 31.934C590.032 28.7738 601.121 28.3142 602.443 32.0489C603.362 34.5195 604.454 34.5195 606.063 34.5195C607.901 34.577 609.05 33.198 608.82 30.9572Z" fill="#F1F1F1"/>
</svg>
